PathFileType	4	(X/Y/Z)	 s03c0203.trc
DataRate	CameraRate	NumFrames	NumMarkers	Units	OrigDataRate	OrigDataStartFrame	OrigNumFrames
200	200	4	50	mm	200	1251	2000
Frame#	Time	racr			lacr			c7			jug			rlel			rdr			llel			ldr			s2			lic			ric			lasi			rasi			rpsi			lpsi			rgt			lgt			rth1			rth2			rth3			rth4			rlfc			rmfc			rsh1			rsh2			rsh3			rsh4			rlmal			rcal			rtoe			rmt5			rmt1			lth1			lth2			lth4			lth3			llfc			lmfc			lsh1			lsh2			lsh3			lsh4			llmal			lcal			ltoe			lmt1			lmt5			SBIKE			LBIKE			RBIKE			
		X1	Y1	Z1	X2	Y2	Z2	X3	Y3	Z3	X4	Y4	Z4	X5	Y5	Z5	X6	Y6	Z6	X7	Y7	Z7	X8	Y8	Z8	X9	Y9	Z9	X10	Y10	Z10	X11	Y11	Z11	X12	Y12	Z12	X13	Y13	Z13	X14	Y14	Z14	X15	Y15	Z15	X16	Y16	Z16	X17	Y17	Z17	X18	Y18	Z18	X19	Y19	Z19	X20	Y20	Z20	X21	Y21	Z21	X22	Y22	Z22	X23	Y23	Z23	X24	Y24	Z24	X25	Y25	Z25	X26	Y26	Z26	X27	Y27	Z27	X28	Y28	Z28	X29	Y29	Z29	X30	Y30	Z30	X31	Y31	Z31	X32	Y32	Z32	X33	Y33	Z33	X34	Y34	Z34	X35	Y35	Z35	X36	Y36	Z36	X37	Y37	Z37	X38	Y38	Z38	X39	Y39	Z39	X40	Y40	Z40	X41	Y41	Z41	X42	Y42	Z42	X43	Y43	Z43	X44	Y44	Z44	X45	Y45	Z45	X46	Y46	Z46	X47	Y47	Z47	X48	Y48	Z48	X49	Y49	Z49	X50	Y50	Z50	
1251	6.2550	489.271989	1403.497524	-104.603203	434.318032	1411.313990	-410.915038	395.396443	1488.257364	-245.294656	402.375596	1311.655400	-245.424336	529.483790	1183.662861	77.624500	721.551258	987.231778	-8.696205	494.729935	1171.403951	-540.495508	722.645197	986.968940	-443.727421	-115.491896	1194.017445	-184.269608	28.412618	1245.191472	-380.450015	61.646797	1229.680579	-13.503421	68.476565	1178.300059	-336.284761	91.603293	1161.890355	-60.748164	-88.216281	1244.106619	-136.401867	-92.310862	1248.279444	-218.164906	-0.445152	1104.068583	-5.737264	7.020813	1167.287871	-399.389643	75.249136	953.818120	10.044904	145.019202	898.253807	13.672966	180.110232	820.237177	1.626553	174.903768	920.336759	7.645064	240.309876	710.817783	-32.414133	254.473259	701.858096	-150.029519	202.209196	546.935759	-15.108627	210.920301	459.560473	-32.464709	174.328080	379.654527	-40.567411	242.924124	457.928041	-54.357623	143.036801	253.686947	-70.050387	82.210757	219.500127	-110.850368	387.631794	164.735241	-106.875143	265.057137	161.622448	-39.394522	297.083593	181.669259	-150.771087	133.780172	1104.627347	-434.424697	219.190961	1099.479161	-444.704630	232.946166	1131.809910	-431.347072	292.867655	1049.793214	-455.657639	424.821229	1005.143063	-450.096420	434.647296	986.084424	-316.950403	323.309356	866.335796	-457.762591	294.457287	789.070490	-434.880172	225.748356	731.043609	-426.436524	322.359647	773.274473	-413.630085	146.662450	637.496304	-401.175730	70.674709	618.818378	-352.477683	346.871477	480.990333	-353.362112	259.186983	516.566785	-310.887751	230.540965	512.509154	-424.444071	-217.410028	945.190823	-230.421146	-8.016261	84.411968	-436.721636	-13.923413	80.738379	-36.522843	
1252	6.2600	490.762450	1403.253179	-107.687860	431.547042	1410.484294	-413.438602	395.022553	1487.667582	-247.293323	402.013889	1311.067629	-247.089401	531.831364	1184.674861	76.753708	722.531916	987.006368	-9.222912	492.673885	1170.212468	-541.279055	722.227091	986.932115	-443.825000	-115.603537	1194.568793	-183.282323	27.143971	1246.394399	-378.850279	62.736910	1229.163097	-12.456452	67.797707	1178.906819	-334.751178	92.457858	1161.341552	-59.537972	-87.146329	1244.004850	-134.567021	-92.529105	1249.016029	-215.942324	-0.420895	1103.423953	-4.411765	6.732866	1168.987878	-398.204640	74.847861	953.312633	11.509861	144.662226	897.689383	15.549832	179.683985	819.595279	3.853511	174.420060	919.800973	9.452476	240.074537	710.046554	-30.147681	254.777466	700.793412	-147.705820	198.543653	546.940839	-13.371998	205.547930	459.460085	-31.140363	167.390774	380.349410	-39.500570	237.568673	457.328268	-52.863653	133.997097	254.837488	-69.724464	73.203915	221.403487	-111.194138	377.333104	162.116189	-106.788794	254.615025	160.509305	-39.516574	287.192901	180.282643	-150.785286	134.057827	1106.242273	-432.660743	219.551709	1101.365904	-442.389518	232.763501	1133.475418	-428.473785	293.577444	1051.910128	-452.452635	425.524602	1009.230791	-447.105081	435.207496	990.400156	-313.734759	326.489282	868.616005	-455.695738	298.756070	790.810197	-433.069013	230.887085	731.762951	-425.207039	326.686207	775.551291	-411.528415	152.986080	636.623105	-400.414117	77.135235	615.754098	-351.890089	357.235904	485.904723	-353.701616	268.567323	519.044896	-310.822622	239.918143	514.171415	-424.298071	-217.420790	945.260441	-230.430145	-8.026237	84.430098	-436.721747	-13.926021	80.760573	-36.528044	
1253	6.2650	492.231803	1403.063897	-110.599435	428.835902	1409.670202	-415.868099	394.666331	1486.981935	-249.137237	401.852121	1310.392094	-248.552811	534.062326	1185.616805	75.775537	723.427038	986.804480	-9.769809	490.622180	1169.140873	-541.960147	721.807603	986.945162	-443.918534	-115.566964	1195.172054	-180.551829	25.950864	1247.857142	-377.391049	63.542835	1228.716107	-11.364490	67.107512	1179.477537	-333.320642	93.120450	1160.904714	-58.401488	-86.566514	1244.238649	-132.881103	-92.664960	1249.803755	-213.855959	-0.462376	1103.134722	-3.226288	6.349258	1170.656066	-397.174211	74.770809	953.064792	12.928560	144.671239	897.499268	17.270687	179.816763	819.550054	5.968429	174.351269	919.660258	11.219793	240.203215	709.591855	-27.951565	255.603842	700.236768	-145.448658	195.438542	547.347466	-11.781799	200.585812	459.843079	-29.906479	160.831333	381.611604	-38.507733	232.551034	457.028676	-51.553034	125.037555	256.761029	-69.405761	63.891853	224.127942	-111.314826	366.965965	160.097333	-106.652583	244.220913	160.188648	-39.666803	277.275810	179.598676	-150.931972	134.178702	1107.539773	-430.860802	219.741176	1103.054141	-440.175591	232.494920	1135.009218	-425.779811	294.035977	1053.741239	-449.641326	425.691870	1012.664326	-444.551946	435.596912	994.020938	-310.632259	329.374963	870.227433	-453.807210	302.726983	791.970858	-431.445162	235.727118	731.835902	-423.924602	330.681020	777.145230	-409.603200	159.156073	635.186557	-399.721156	83.826142	611.841019	-351.631080	367.482413	489.955937	-352.983597	277.934105	520.629062	-310.583168	249.307315	515.175228	-424.102499	-217.452780	945.293779	-230.614940	-8.034485	84.437054	-436.717219	-13.914912	80.747256	-36.527899	
1254	6.2700	493.703450	1402.708550	-113.300755	426.137877	1408.821670	-418.096784	394.246552	1486.051491	-250.604768	401.917057	1309.484361	-249.800551	536.289339	1186.486187	74.876708	724.319076	986.672697	-10.205342	488.621881	1168.068024	-542.531291	721.293474	987.042054	-444.046664	-115.466060	1195.749783	-178.027256	24.623369	1249.508921	-375.900717	64.158050	1228.290125	-10.186189	66.408439	1180.011526	-331.995959	93.406069	1160.603314	-57.532310	-86.208987	1244.515587	-131.231915	-92.639645	1250.744929	-212.037326	-0.520353	1102.920880	-2.079723	5.962945	1172.177658	-396.214344	74.882451	952.905962	14.114951	144.962723	897.739162	18.888976	180.407178	819.810250	7.998431	174.682346	919.847219	12.795962	240.833215	709.623063	-25.788724	257.006890	700.021874	-142.782940	192.984097	548.285051	-10.113657	196.104392	460.855053	-28.622933	154.606652	383.457917	-37.594998	227.996906	457.471060	-50.227323	116.341306	259.384053	-68.998933	54.692077	227.783179	-111.431513	356.609303	158.654836	-106.607622	233.843867	160.654639	-39.814051	267.354857	179.497053	-151.052600	134.077284	1108.652128	-429.142665	219.667397	1104.434659	-438.201003	232.147359	1136.473441	-423.619812	294.166587	1055.438748	-447.422308	426.093471	1015.446522	-441.346297	435.749525	996.826388	-307.788271	331.906544	871.291277	-451.852189	306.355481	792.535940	-429.910189	240.214793	731.417759	-422.695861	334.487950	778.346521	-408.559488	165.375187	632.790872	-399.095697	90.448023	607.150404	-351.282484	377.621091	493.476636	-352.862183	287.213583	521.682183	-310.378975	258.652901	515.512177	-423.943377	-217.427524	945.275747	-230.418577	-8.056000	84.495333	-436.703179	-13.939086	80.758004	-36.519762	
